<svg xmlns="http://www.w3.org/2000/svg" width="79.566" height="46.546" viewBox="0 0 79.566 46.546">
  <g id="Group_9071" data-name="Group 9071" transform="translate(0 -0.001)">
    <path id="Path_27927" data-name="Path 27927" d="M2006.207,1718.5h5.724l0-1.529h-7.526v8.787h7.53v-1.4h-5.749V1722h5.749v-1.407h-5.73Z" transform="translate(-1960.539 -1679.395)" fill="#2f2f2f"/>
    <path id="Path_27928" data-name="Path 27928" d="M979.3,1718.5h5.727v-1.529H977.5v8.787h7.527v-1.4h-5.743V1722h5.743v-1.407H979.3Z" transform="translate(-956.107 -1679.395)" fill="#2f2f2f"/>
    <path id="Path_27929" data-name="Path 27929" d="M463.271,1716.2l-2.929,6.763-2.928-6.763h-1.66l3.705,8.8v0h1.77v0l3.7-8.8Z" transform="translate(-445.779 -1678.633)" fill="#2f2f2f"/>
    <path id="Path_27930" data-name="Path 27930" d="M14.433,1718.5h5.723l0-1.529H12.632v8.787h7.526v-1.4H14.417V1722h5.741v-1.407H14.435Z" transform="translate(-12.355 -1679.395)" fill="#2f2f2f"/>
    <path id="Path_27931" data-name="Path 27931" d="M2466.241,1704.368a5.716,5.716,0,0,1-2.06-.321.94.94,0,0,1-.417-1.2c.818-1.484,3.079-.841,4.3-.472a12.36,12.36,0,0,1,1.786.685l.643-1.147a13.6,13.6,0,0,0-1.85-.858,8.99,8.99,0,0,0-1.618-.352c-1.437-.171-3.3-.234-4.386.972a2.278,2.278,0,0,0,.107,3.357c1.165.891,2.719.9,4.094,1.044.206.023.417.038.625.067a2.879,2.879,0,0,1,1.278.453c.437.347.226,1.008-.128,1.356a2.281,2.281,0,0,1-1.244.557,7.78,7.78,0,0,1-4.845-1.1l-.789,1.169a5.747,5.747,0,0,0,1.125.666,10.2,10.2,0,0,0,4.787.643,3.532,3.532,0,0,0,2.793-1.525,2.333,2.333,0,0,0,.363-1.25,2.292,2.292,0,0,0-.576-1.5c-.931-1.09-2.672-1.163-3.983-1.238" transform="translate(-2407.853 -1663.389)" fill="#2f2f2f"/>
    <path id="Path_27932" data-name="Path 27932" d="M2977.13,1716.2v1.537h3.652V1725h1.849v-7.255h3.645v-1.549Z" transform="translate(-2911.972 -1678.633)" fill="#2f2f2f"/>
    <path id="Path_27933" data-name="Path 27933" d="M1472.982,1719c0-2.4-2.781-2.358-2.781-2.358h-6.251v8.8l1.8,0v-7.31h4.185c1.513-.028,1.218,1.221,1.218,1.221-.053.791-1.167.874-1.167.874H1467l3.679,5.216h2.2l-2.757-3.711c3.286,0,2.86-2.725,2.86-2.725" transform="translate(-1431.91 -1679.067)" fill="#2f2f2f"/>
    <path id="Path_27934" data-name="Path 27934" d="M787.886,308.643c-2.057-4.715-3.041-8.328-7.015-9.8a7.584,7.584,0,0,0-5.589.351c.261-.136,1.552.834,1.779,1a8.412,8.412,0,0,1,1.409,1.4,15.208,15.208,0,0,1,2.005,3.485c1.12,2.52,2.327,5.986,3.878,8.293a9.306,9.306,0,0,0,3.438,3.251,8.379,8.379,0,0,0,6.7-.194c-2.769-.713-4.376-2.678-6.607-7.79" transform="translate(-758.314 -291.935)" fill="#005294"/>
    <path id="Path_27935" data-name="Path 27935" d="M1984.62,17.306C1981.128,9.295,1979.457,3.16,1972.7.658a12.944,12.944,0,0,0-9.4.492c-.033.016-.068.03-.1.048.445-.231,2.646,1.476,3.036,1.764a12.273,12.273,0,0,1,1.312,1.164c.38.385.74.795,1.082,1.214a19.8,19.8,0,0,1,1.963,2.971h0c.525.957,1,1.947,1.439,2.943.188.421.376.864.568,1.314,1.744,4.113,3.646,9.246,6.023,12.778a15.764,15.764,0,0,0,5.838,5.519c3.017,1.507,8.367,1.341,11.383-.332-4.7-1.212-7.432-4.55-11.221-13.227" transform="translate(-1920.231 0)" fill="#005294"/>
    <path id="Path_27936" data-name="Path 27936" d="M22.161,337.458a15.211,15.211,0,0,0-2.005-3.485,8.414,8.414,0,0,0-1.409-1.4c-.214-.16-1.374-1.028-1.719-1.005a11.426,11.426,0,0,0-3.8,3.285c-2.267,2.839-4.006,6.118-5.979,9.161a11.254,11.254,0,0,1-5.306,4.726,18.893,18.893,0,0,1-1.946.7c8.846,1.924,12.74-15.446,20.717-14.6-6.2,1.579-9.646,13.454-15.213,16.862a12.193,12.193,0,0,1-2.634,1.294c8.715,1.3,12.1-13.916,19.537-14.786-5.481,2.8-8.462,13.625-14.45,16.553A19.545,19.545,0,0,1,5.3,355.929c8.428,1.53,11.878-12.106,18.877-13.708-.73-1.637-1.388-3.349-2.018-4.763" transform="translate(0 -324.31)" fill="#77ae0e"/>
    <path id="Path_27937" data-name="Path 27937" d="M1383.669,40.008a18.4,18.4,0,0,0-1.365-1.974c-.342-.42-.7-.829-1.082-1.214a12.247,12.247,0,0,0-1.312-1.164c-.389-.288-2.591-1.995-3.036-1.764.034-.017.069-.032.1-.048a9.786,9.786,0,0,1,1-.418c-5.835,1.88-7.978,10.6-12.43,15.132a5.872,5.872,0,0,1-1.578,1.337c-.068.046-.139.08-.208.125.161.357.319.7.475,1.026,6.379-2.647,10.206-14.977,16.959-14.25-6.277,1.368-9.6,13.293-15.22,16.733-.071.051-.177.114-.284.183.209.325.419.622.63.894,6.889-2.084,10.3-14.762,17.355-14.6M1369.6,57.426c-.03.012-.062.021-.094.035.032-.014.064-.023.094-.035m14.671-16.42c-.184-.336-.388-.657-.588-.983-5.951,2.053-8.961,13.416-15.137,16.569a6.793,6.793,0,0,0,1.545.6,4.92,4.92,0,0,1-.491.233c6.156-2.5,9.564-13.359,15.822-14.1-.36-.786-.735-1.567-1.151-2.324M1369.5,57.461a7.778,7.778,0,0,1-1.736.438,6.814,6.814,0,0,0,1.736-.438" transform="translate(-1333.908 -32.694)" fill="#77ae0e"/>
    <path id="Path_27938" data-name="Path 27938" d="M3439.114,1489.937a2.148,2.148,0,1,1,2.148,2.148,2.151,2.151,0,0,1-2.148-2.148m3.773,0a1.628,1.628,0,1,0-1.625,1.731,1.65,1.65,0,0,0,1.625-1.731m-2.452-1.226h.9c.583,0,.9.2.9.714a.607.607,0,0,1-.637.654l.655,1.065h-.464l-.631-1.047h-.274v1.047h-.452Zm.452,1.041h.4c.268,0,.5-.036.5-.363,0-.286-.261-.333-.494-.333h-.4Z" transform="translate(-3363.845 -1455.226)" fill="#2f2f2f"/>
  </g>
</svg>
