<svg xmlns="http://www.w3.org/2000/svg" width="160" height="56" viewBox="0 0 160 56"><defs><clipPath id="a"><path d="M0 0h160v56H0z"/></clipPath></defs><g clip-path="url(#a)"><g data-name="Group 8910"><path data-name="Path 24226" d="M.671 1.312v48.812h44.66V1.312zm42.311 32.726a11.442 11.442 0 0 0-7.067 2.519 11.176 11.176 0 0 0-2.35 2.548 12.786 12.786 0 0 1-21.126 0 11.732 11.732 0 0 0-2.348-2.548 11.6 11.6 0 0 0-7.1-2.519v-1.375a9.654 9.654 0 0 1 1.6.117 12.557 12.557 0 0 1 7.526 3.778 16.017 16.017 0 0 1 1.406 1.714 11.424 11.424 0 0 0 18.949 0 13.23 13.23 0 0 1 1.378-1.714 12.556 12.556 0 0 1 7.526-3.778 9.666 9.666 0 0 1 1.6-.117v1.375zm-11.564-1.259l-2.433 2.4h-2.667v2.72l-3.319 3.292-3.351-3.292v-2.72h-2.692l-2.373-2.4-.916-.917.857-.86 2.431-2.433h2.692v-2.69l3.351-3.351 3.319 3.351v2.69h2.665l2.461 2.433.888.86zm11.561-3.066v1.378a10.248 10.248 0 0 1-1.339-.089 12.634 12.634 0 0 1-7.759-3.777 13.942 13.942 0 0 1-1.408-1.748 11.427 11.427 0 0 0-18.949 0 12.234 12.234 0 0 1-1.434 1.748 12.647 12.647 0 0 1-7.758 3.777 10.263 10.263 0 0 1-1.345.089v-1.378a11.388 11.388 0 0 0 7.044-2.488 11.5 11.5 0 0 0 2.4-2.578 12.785 12.785 0 0 1 21.126 0 12.171 12.171 0 0 0 2.378 2.578 11.4 11.4 0 0 0 7.047 2.489z" fill="#003e92"/><path data-name="Path 24227" d="M21.968 26.822v1.746h1.979v-1.746l-.945-.975z" fill="#003e92"/><path data-name="Path 24228" d="M17.852 31.002l-.919.86.919.916.112.112h1.688v-2h-1.688z" fill="#003e92"/><path data-name="Path 24229" d="M21.968 31.002v1.889h1.979v-2h-1.979z" fill="#003e92"/><path data-name="Path 24230" d="M28.014 30.887h-1.692v2h1.692l.115-.112.884-.916-.884-.86z" fill="#003e92"/><path data-name="Path 24231" d="M21.968 36.559v.4l1.034.943.945-.943v-1.777h-1.979z" fill="#003e92"/><path data-name="Rectangle 9132" fill="#8ad1f5" d="M.671 52.79h44.66v2.662H.671z"/></g><path data-name="Path 24355" d="M73.824 25.144v-1.488h-5.352v-2.424h4.944v-1.464H70.7c.456-.888.936-1.92 1.392-2.928l-1.608-.36a28.26 28.26 0 0 1-1.364 3.288h-4.3l1.3-.408a11.165 11.165 0 0 0-1.392-2.784l-1.416.36a11.479 11.479 0 0 1 1.32 2.832h-2.52v1.464h4.656v2.424h-5.16v1.488h5.16v4.224h1.7v-4.224zm4.368-13.152v-1.68h-9.576c.1-.744.192-1.512.264-2.208l-1.92-.216c-.024.72-.1 1.56-.168 2.424h-9.576v1.68h9.408c-.1.912-.192 1.8-.312 2.544h-7.8v15.288h1.752V16.192H75.12V27.76c0 .384-.12.5-.552.528-.408.024-1.868.024-3.384-.048a8.352 8.352 0 0 1 .648 1.608 14.369 14.369 0 0 0 4.056-.288c.768-.264 1.032-.744 1.032-1.8V14.536h-8.9c.12-.768.264-1.656.384-2.544zm9.12 9.312v-4.9h5.376v-5.3h3.576v5.256h5.448v4.92h-5.448v5.88h-3.552V21.3zm10.68 5.856v-4.3h4.656v-.02h.864v-8.016h-5.52V11.1h6.7V9.444H84.5V11.1h6.48v3.744h-5.4v8.016h5.4v4.3h-7.128v1.632h21.412V27.16zM129.6 10.432v1.992h-4.656v-1.992zm-4.848 5.468c.1-.72.168-1.44.192-2.088h4.656V15.9zm4.848 1.4v2.78c0 .288-.1.384-.408.408-.264 0-1.32 0-2.4-.048a6.643 6.643 0 0 1 .528 1.608 8.662 8.662 0 0 0 3.144-.288c.648-.288.816-.768.816-1.656V8.944h-7.944V13.1c0 2.352-.312 5.52-2.736 7.776a5.143 5.143 0 0 1 1.416.84 9.217 9.217 0 0 0 2.448-4.416zm-13.968-1.756a7.568 7.568 0 0 1-.1 1.272h-2.468v-3.072h-1.488v4.536h3.456a6.429 6.429 0 0 1-3.624 2.952 4.87 4.87 0 0 1 1.1 1.224 7.376 7.376 0 0 0 4.3-4.176h3.024v.648h1.512v-5.184h-1.512v3.072h-2.664a11.2 11.2 0 0 0 .072-1.248v-2.88h4.944V11.2h-3.216c.48-.768 1.032-1.68 1.56-2.592l-1.56-.48a27.207 27.207 0 0 1-1.632 3.072h-2.76l.912-.456a10.859 10.859 0 0 0-1.68-2.616l-1.272.572a14.346 14.346 0 0 1 1.536 2.5h-3.432v1.488h4.992zm6.648 11.904v-2.664h7.488v-1.56h-7.488v-1.488h-1.8v1.488h-7.368v1.56h7.368v2.664h-9.84v1.584h21.624v-1.584zM156.72 15.9c0 .216-.048.264-.264.264h-1.44a3.891 3.891 0 0 1 .336 1.224 5.971 5.971 0 0 0 2.232-.216c.48-.216.6-.552.6-1.248V8.94h-5.928v1.32h4.464zm-4.2-4.536c.672.672 1.56 1.584 1.992 2.136l1.032-.744a27.164 27.164 0 0 0-2.04-2.016zm3.744 1.92c-1.56.672-3.048 1.3-4.128 1.68l.672 1.1c1.152-.5 2.448-1.152 3.72-1.728zM150.048 16c0 .192-.048.24-.264.264H148.3a3.3 3.3 0 0 1 .312 1.08 6.765 6.765 0 0 0 2.256-.192c.456-.192.6-.48.6-1.152V8.944H145.7v1.32h4.344zm-4.176-4.656a25.466 25.466 0 0 1 1.992 2.136l1.032-.72a20.4 20.4 0 0 0-2.04-2.04zm3.72 2.208c-1.56.7-3.072 1.32-4.176 1.728l.72 1.1a453.533 453.533 0 0 0 3.72-1.8zm-9.288.84a24.6 24.6 0 0 1 1.968 2.544l.864-.624v3.024a37.28 37.28 0 0 1-2.952 1.8c.1-1.368.12-2.712.12-3.864zm2.832-3.96v5.448a22.981 22.981 0 0 0-1.968-2.3l-.864.576v-3.72zm1.488-1.632h-5.832v8.472c0 3.456-.12 8.16-1.632 11.568a4.223 4.223 0 0 1 1.224 1.06 24.792 24.792 0 0 0 1.8-8.568l.624 1.32c.768-.6 1.536-1.176 2.328-1.8v6.84c0 .336-.12.456-.408.456s-1.228.02-2.28-.028a6.54 6.54 0 0 1 .452 1.536 8.006 8.006 0 0 0 2.976-.288c.552-.288.744-.768.744-1.656zm12.096 14.952c-1.992 2.52-6.144 4.008-11.112 4.68a5.3 5.3 0 0 1 .816 1.344c5.232-.84 9.552-2.496 11.784-5.376zm-2.136-1.8c-1.728 1.488-5.064 2.688-8.112 3.288a6.164 6.164 0 0 1 .912 1.1c3.168-.72 6.552-2.04 8.544-3.744zm-1.944-2.088a17.23 17.23 0 0 1-5.976 2.784 7.251 7.251 0 0 1 .96.96 19.22 19.22 0 0 0 6.312-3.144zm-.48-3.648a19.223 19.223 0 0 1-7.32 3.912 7.374 7.374 0 0 1 1.008 1.152 24.245 24.245 0 0 0 6.072-3.12 22.939 22.939 0 0 0 6.216 2.952 4.636 4.636 0 0 1 1.056-1.3 25.368 25.368 0 0 1-6.264-2.448c.192-.168.384-.36.528-.5z"/><path data-name="Path 24356" d="M71.872 40.08a20.83 20.83 0 0 0-1.552-2.592l-.8.336a23.509 23.509 0 0 1 1.5 2.656zm-3.712-.064a9.487 9.487 0 0 0-1.26-1.408 11.468 11.468 0 0 0 .46-1.808l-.912-.112a6.5 6.5 0 0 1-1.792 3.812 6.646 6.646 0 0 1 .784.544 6.039 6.039 0 0 0 1.12-1.616 8.421 8.421 0 0 1 1.008 1.264zm-2.992-.848a11.169 11.169 0 0 0-.912-.736 12.184 12.184 0 0 0 .384-1.632l-.944-.128a6.877 6.877 0 0 1-1.616 3.776 5.845 5.845 0 0 1 .8.544 6.538 6.538 0 0 0 1.072-1.76 8.134 8.134 0 0 1 .816.7zm-2.88 6.976a26.612 26.612 0 0 0-.9-3.408l-.784.192c.16.512.32 1.1.464 1.664l-1.952.256a31.429 31.429 0 0 0 2.96-5.328l-.928-.5c-.272.736-.624 1.5-.96 2.208l-1.344.112a23.5 23.5 0 0 0 1.9-4.352l-.976-.368a20.244 20.244 0 0 1-1.576 4.08c-.272.5-.48.848-.72.9.112.256.272.752.336.96a6.69 6.69 0 0 1 1.872-.336c-.48.88-.912 1.568-1.1 1.856-.416.608-.7 1.024-1.008 1.1a4.5 4.5 0 0 1 .32.96 17.4 17.4 0 0 1 3.376-.64c.08.336.128.64.176.88zm-4.16.688a18.308 18.308 0 0 1-.8 3.968 4.728 4.728 0 0 1 .88.288 24.231 24.231 0 0 0 .816-4.112zm1.344.1a28.447 28.447 0 0 1 .368 3.644l.86-.128a31.493 31.493 0 0 0-.412-3.648zm1.264-.256a17.969 17.969 0 0 1 .704 2.624l.784-.24a20.137 20.137 0 0 0-.736-2.576zm7.408 1.92l-1.392.208V47.76h1.376v-.816h-1.376v-1.072h1.264v-.816h-1.264V44h1.312v-.816h-1.312v-1.072h1.664a41.057 41.057 0 0 0 .528 5.92 8.294 8.294 0 0 1-.8 1.12zm-3.2-6.48h.912v6.832l-.912.112zm5.76.912a16.044 16.044 0 0 1-.96 3.408 65.567 65.567 0 0 1-.288-4.32h2.64V41.1h-2.672a133.735 133.735 0 0 1-.032-4.464H68.32c.016 1.584.032 3.088.064 4.464h-6.4v1.008h2.08v1.056h-1.456v.816h1.456v1.072h-1.408v.816h1.408v1.072h-1.5v.816h1.5v1.46c-.816.112-1.552.208-2.16.288l.16.96c1.552-.24 3.712-.592 5.792-.96a8.391 8.391 0 0 1-1.356 1.264 3.267 3.267 0 0 1 .64.592 9.079 9.079 0 0 0 2.08-2.128c.4 1.264.928 1.968 1.712 2 .5.016 1.008-.544 1.312-2.544a3.79 3.79 0 0 1-.768-.7c-.08 1.184-.256 1.936-.5 1.92-.416-.032-.736-.688-.992-1.872A15.525 15.525 0 0 0 71.6 43.44zM91.072 38.9a16.308 16.308 0 0 0-1.088-2.2l-1.008.4a17.778 17.778 0 0 1 1.072 2.272zm-11.216 7.948a17.571 17.571 0 0 1-.768 3.664 4.948 4.948 0 0 1 .9.336 19.475 19.475 0 0 0 .8-3.84zm1.7.112a27.257 27.257 0 0 1 .4 3.408l.912-.224a27.031 27.031 0 0 0-.448-3.36zm1.76-.32a23.357 23.357 0 0 1 .912 3.088l.864-.288a26.358 26.358 0 0 0-.96-3.072zm-.176-3.76c.208.48.432 1.04.624 1.584l-2.832.384A30.333 30.333 0 0 0 84.5 39.52l-.928-.544c-.368.752-.8 1.52-1.216 2.208l-1.712.16a24.144 24.144 0 0 0 2.448-4.288l-1.024-.432a22.376 22.376 0 0 1-2.08 4.032c-.336.48-.592.816-.864.88a8.436 8.436 0 0 1 .336 1.024 8.266 8.266 0 0 1 2.272-.384c-.592.88-1.1 1.568-1.36 1.872-.464.592-.832 1.008-1.152 1.072a7.978 7.978 0 0 1 .352 1.04c.288-.16.784-.288 4.448-.864.08.3.128.576.176.8l.912-.368a16.913 16.913 0 0 0-1.136-3.152zm4.048 3.92h2.352v2.176h-2.352zm2.352-4.208h-2.352v-2.016h2.352zm0 3.136h-2.352V43.68h2.352zm4.06 3.248h-2.976V46.8h2.464v-1.072h-2.464V43.68h2.448v-1.088h-2.448v-2.016h2.752v-1.088H87.5a25.361 25.361 0 0 0 .976-2.464l-1.12-.32a17.692 17.692 0 0 1-2.828 5.616 8.592 8.592 0 0 1 .572 1.056 12.706 12.706 0 0 0 1-1.344v9.216h1.088V50.08H93.6zm18.784-1.088h-3.84v-1.2h3.84zm-3.84-3.264h3.84v1.12h-3.84zm-4.624-2.832V40.64h3.44v1.152zm8.208-1.152v1.152h-3.584V40.64zm3.088 5.1h-1.648v-2h-5.024v-1.12h4.768v-2.816h-4.768v-.928h6.368V37.9h-6.368v-1.28h-1.184v1.28h-6.24v.976h6.24v.928h-4.576v2.816h4.576v1.12h-5.024v.88h5.024v1.12h-6.544v.944h6.544v1.2h-5.168v.916h5.168v1.1c0 .272-.1.368-.4.384-.272.004-1.232.016-2.192-.012a3.945 3.945 0 0 1 .416 1.008 9.553 9.553 0 0 0 2.656-.192c.48-.176.704-.448.704-1.188v-1.1h3.84v.72h1.184v-2.832h1.648zm12.112 2.5a14.327 14.327 0 0 1-4.736 1.584 4.318 4.318 0 0 1 .72.9 14.862 14.862 0 0 0 4.912-2.064zm3.872.56c1.52.56 3.552 1.376 4.608 1.888l.736-.752c-1.1-.512-3.136-1.28-4.64-1.776zm.944-8.352a12.517 12.517 0 0 1-.944 1.584l.56.176h-4.416l.656-.176a6.435 6.435 0 0 0-.848-1.584zm-1.984 5.984v-1.2h5.008v-.912h-5.008v-1.152h5.792v-.96h-3.664a17.608 17.608 0 0 0 1.1-1.472l-1.04-.288h4.16v-.992h-2.46c.416-.608.944-1.488 1.392-2.3l-1.216-.336a13.359 13.359 0 0 1-1.232 2.432l.64.208H131.7v-2.832h-1.14v2.832h-1.9v-2.832h-1.12v2.832h-1.956l.8-.32a9.815 9.815 0 0 0-1.36-2.352l-1.008.352a12.613 12.613 0 0 1 1.28 2.32h-2.576v.992h4.128l-.848.22a6.833 6.833 0 0 1 .816 1.536h-3.456v.96h5.632v1.152h-4.816v.912h4.816v1.2h-6.32v1.008h6.32v3.792h1.168V47.44h6.416v-1.008zm21.872-7.932h-2.944a15.055 15.055 0 0 0-.848-1.952l-1.04.3c.224.5.48 1.12.656 1.648h-3.312v1.088h7.488zm-4.432 3.932a11.078 11.078 0 0 0-1.056-2.7l-1.024.256a12.434 12.434 0 0 1 .992 2.736zm2.88 3.968v2.9h-4.352v-2.9zm-5.488 4.72h1.136v-.768h4.352v.64h1.168v-5.664h-6.656zm5.152-11.44a22.284 22.284 0 0 1-1.168 3.1h-4.9v1.088h8.324v-1.084h-2.272c.4-.832.848-1.92 1.2-2.848zm7.36-2.272l-.192.064h-4.1V51.2h1.072V38.56h2.544c-.432 1.232-1.056 2.928-1.648 4.272a5.137 5.137 0 0 1 1.824 3.616 1.419 1.419 0 0 1-.412 1.252 1.572 1.572 0 0 1-.64.16 8.35 8.35 0 0 1-1.232-.032 2.839 2.839 0 0 1 .32 1.136 9.48 9.48 0 0 0 1.36-.032 2.038 2.038 0 0 0 .992-.336 2.387 2.387 0 0 0 .72-2.032 5.38 5.38 0 0 0-1.776-3.864c.672-1.472 1.408-3.3 1.984-4.752z"/></g></svg>